<?xml version="1.0" encoding="UTF-8"?>
<svg width="435px" height="290px" viewBox="0 0 435 290" version="1.1" xmlns="http://www.w3.org/2000/svg" xmlns:xlink="http://www.w3.org/1999/xlink">
    <title>Bice</title>
    <g id="Page-1" stroke="none" stroke-width="1" fill="none" fill-rule="evenodd">
        <g id="Bice" transform="translate(0.000000, 0.000000)" fill="#ff3cc3">
            <path d="M338.467281,96.827554 C334.228837,96.871826 329.997892,97.1946366 325.801835,97.7938963 L323.674813,89.4833519 C324.065491,87.5703905 324.065491,85.5982591 323.674813,83.6852977 L314.006533,45.0316027 C313.540866,43.2134663 312.719354,41.5055809 311.589463,40.0066223 L304.338254,11.0163511 C302.734431,4.53223203 296.905231,-0.0170486282 290.222565,4.80250641e-05 L232.212887,4.80250641e-05 C224.203422,4.80250597e-05 217.710468,6.4897413 217.710468,14.4951836 C217.710468,22.500626 224.203422,28.9903193 232.212887,28.9903193 L278.910678,28.9903193 L280.36092,34.8850078 C232.948088,40.5461002 188.748622,61.7511883 154.673284,95.1847719 L154.673284,53.1488786 C154.673284,45.1434363 148.18033,38.653743 140.170865,38.653743 L86.9953263,38.653743 C78.9858612,38.653743 72.4929068,45.1434363 72.4929068,53.1488786 C72.4929068,61.154321 78.9858612,67.6440143 86.9953263,67.6440143 L125.668445,67.6440143 L125.668445,101.07946 C87.4952946,89.0895309 45.8768882,101.841462 20.9851713,133.154543 C-3.90654553,164.467625 -6.92763012,207.870923 13.3862013,242.327375 C33.7000326,276.783827 73.1508701,295.172912 112.617363,288.581659 C152.083856,281.990407 183.410143,251.780917 191.412747,212.59537 L212.682962,212.59537 C217.813134,212.58438 222.555762,209.865169 225.155043,205.444437 C225.155043,205.444437 233.276398,191.625741 243.428092,174.811384 C235.591768,214.846115 253.752417,255.487149 288.811461,276.373121 C323.870504,297.259094 368.275526,293.890751 399.779387,267.95565 C431.283248,242.020548 443.099388,199.105626 429.307862,160.711474 C415.516335,122.317323 379.088112,96.7148086 338.273915,96.7309197 L338.467281,96.827554 Z M146.358564,147.560529 C155.66404,157.610577 161.698728,170.246729 163.664784,183.798368 L120.930988,183.798368 C128.596739,171.170999 137.091205,159.065201 146.358564,147.560529 L146.358564,147.560529 Z M96.7602888,261.105758 C69.4178744,261.135253 44.7436794,244.717459 34.2214164,219.493445 C23.6991534,194.269431 29.396127,165.194949 48.6608867,145.801665 C67.9256465,126.408382 96.9732529,120.506487 122.284547,130.842806 C107.167929,149.842956 94.1981855,170.454492 83.6114284,192.302181 C81.5709574,196.795063 81.9572235,202.01682 84.6365926,206.160915 C87.3159618,210.305009 91.9204123,212.802234 96.8569716,212.788639 L161.731128,212.788639 C153.167724,241.4969 126.732311,261.156227 96.7602888,261.105758 L96.7602888,261.105758 Z M204.464925,183.798368 L192.959672,183.798368 C190.705657,161.922771 181.053865,141.469885 165.59844,125.817825 C194.603279,95.6679431 235.596785,67.8372827 287.418764,63.5853763 L290.899345,77.5973407 C273.792265,84.4853093 259.189824,96.4175674 249.035694,111.805861 C233.856495,134.418272 213.263059,168.916695 204.464925,183.798368 Z M338.467281,261.105758 C307.755532,261.056004 280.927412,240.342989 273.12152,210.654674 C265.315628,180.96636 278.489102,149.746365 305.208399,134.611541 L324.544958,211.918931 C326.140099,218.368095 331.917367,222.907941 338.563964,222.935234 C339.751936,223.080832 340.953255,223.080832 342.141227,222.935234 C345.872235,221.999967 349.078661,219.621512 351.055033,216.323173 C353.031404,213.024833 353.615804,209.076833 352.679652,205.347803 L333.343093,126.977436 L338.854012,126.977436 C376.231516,126.977436 406.53197,157.262671 406.53197,194.621402 C406.53197,231.980133 376.231516,262.265369 338.854012,262.265369 L338.467281,261.105758 Z" id="Shape"></path>
        </g>
    </g>
</svg>